# xmcd
#
# Track frame offsets: 
#        150
#        16110
#        33816
#        50307
#        65415
#        80930
#        94715
#        110918
#        127756
#        141253
#        154394
#
# Disc length: 2270 seconds
#
# Revision: 0
# Processed by: cddbd v1.5.2PL0 Copyright (c) Steve Scherf et al.
# Submitted via: ExactAudioCopy v0.95b4
#
DISCID=8e08dc0b
DTITLE=Gretchen  Wilson - One Of The Boys
DYEAR=2007
DGENRE=Country
TTITLE0=Girl I Am
TTITLE1=Come to Bed - (Feat John Rich)
TTITLE2=One of the Boys
TTITLE3=You Don't Have to Go Home
TTITLE4=Heaven Help Me
TTITLE5=There's a Place in the Whiskey
TTITLE6=If You Want a Mother
TTITLE7=Pain Killer
TTITLE8=There Goes the Neighborhood
TTITLE9=Good Ole Boy
TTITLE10=To Tell You the Truth
EXTD=
EXTT0=
EXTT1=
EXTT2=
EXTT3=
EXTT4=
EXTT5=
EXTT6=
EXTT7=
EXTT8=
EXTT9=
EXTT10=
PLAYORDER=
